mtllib axis_marker.mtl
o axis_marker
g x_arrow
usemtl red
v 0 -0.05 -0.05
v 1.4 -0.05 -0.05
v 1.4 0.05 -0.05
v 0 0.05 -0.05
v 0 -0.05 0.05
v 1.4 -0.05 0.05
v 1.4 0.05 0.05
v 0 0.05 0.05
v 1.75 0 0
f 1 2 3 4
f 5 8 7 6
f 1 5 6 2
f 2 9 3
f 6 7 9
g y_arrow
usemtl green
v -0.05 0 -0.05
v 0.05 0 -0.05
v 0.05 1.4 -0.05
v -0.05 1.4 -0.05
v -0.05 0 0.05
v 0.05 0 0.05
v 0.05 1.4 0.05
v -0.05 1.4 0.05
v 0 1.75 0
f 10 11 12 13
f 14 17 16 15
f 10 14 15 11
f 12 18 13
f 16 17 18
g z_arrow
usemtl blue
v -0.05 -0.05 0
v 0.05 -0.05 0
v 0.05 0.05 0
v -0.05 0.05 0
v -0.05 -0.05 1.4
v 0.05 -0.05 1.4
v 0.05 0.05 1.4
v -0.05 0.05 1.4
v 0 0 1.75
f 19 20 21 22
f 23 26 25 24
f 19 23 24 20
f 25 27 26
f 23 27 24
