mtllib drone_frame.mtl
o drone_frame
g body
usemtl yellow
v -0.45 -0.10 -0.28
v 0.45 -0.10 -0.28
v 0.45 0.10 -0.28
v -0.45 0.10 -0.28
v -0.45 -0.10 0.28
v 0.45 -0.10 0.28
v 0.45 0.10 0.28
v -0.45 0.10 0.28
f 1 2 3 4
f 5 8 7 6
f 1 5 6 2
f 2 6 7 3
f 3 7 8 4
f 4 8 5 1
g arm_x
usemtl graphite
v -1.65 -0.035 -0.05
v 1.65 -0.035 -0.05
v 1.65 0.035 -0.05
v -1.65 0.035 -0.05
v -1.65 -0.035 0.05
v 1.65 -0.035 0.05
v 1.65 0.035 0.05
v -1.65 0.035 0.05
f 9 10 11 12
f 13 16 15 14
f 9 13 14 10
f 10 14 15 11
f 11 15 16 12
f 12 16 13 9
g arm_z
v -0.05 -0.035 -1.35
v 0.05 -0.035 -1.35
v 0.05 0.035 -1.35
v -0.05 0.035 -1.35
v -0.05 -0.035 1.35
v 0.05 -0.035 1.35
v 0.05 0.035 1.35
v -0.05 0.035 1.35
f 17 18 19 20
f 21 24 23 22
f 17 21 22 18
f 18 22 23 19
f 19 23 24 20
f 20 24 21 17
g rotors
usemtl blue
v -1.65 0.01 -1.35
v -1.35 0.01 -1.65
v -1.05 0.01 -1.35
v -1.35 0.01 -1.05
v 1.35 0.01 -1.65
v 1.65 0.01 -1.35
v 1.35 0.01 -1.05
v 1.05 0.01 -1.35
v -1.65 0.01 1.35
v -1.35 0.01 1.65
v -1.05 0.01 1.35
v -1.35 0.01 1.05
v 1.35 0.01 1.65
v 1.65 0.01 1.35
v 1.35 0.01 1.05
v 1.05 0.01 1.35
f 25 26 27 28
f 29 30 31 32
f 33 34 35 36
f 37 38 39 40
